#!OML:ASF Y:\EmotionMaleHayes\Project 1\Capture day 1\Session 1\Male1.ASF
:FULLY-SPECIFIED
:DEGREES
975
root 43.9036 16.6871 5.79695 536.383 13.3227 532.087
lowerback 7.59102 -1.39773 -16.4094
upperback 3.18441 -2.56311 -2.17622
thorax -0.177065 -1.23392 7.04535
lowerneck -18.2202 9.52623 11.5309
upperneck 31.3555 16.5779 -10.5057
head 16.1714 7.70227 -2.87178
rclavicle 2.84262e-014 -7.15625e-015
rhumerus -55.8099 -0.962762 -92.5203
rradius 28.1924
rwrist 11.9106
rhand 0.439812 -25.5643
rfingers 7.12502
rthumb 26.0116 -53.8038
lclavicle 2.84262e-014 -7.15625e-015
lhumerus -10.5797 -36.6873 88.4315
lradius 54.4195
lwrist 3.75616
lhand -15.8719 -29.0569
lfingers 7.12502
lthumb 10.3237 0.669737
rfemur -22.7841 -2.71906 0.0574111
rtibia 22.0745
rfoot -11.0393 -8.01689
rtoes 13.8085
lfemur 17.1665 -5.14382 -40.4525
ltibia 6.66607
lfoot -16.7813 -5.31443
ltoes 20.5366
976
root 43.9777 16.6603 5.63698 536.633 12.655 531.747
lowerback 7.26298 -1.5017 -16.7912
upperback 3.14779 -2.65784 -2.20486
thorax 0.013251 -1.29447 7.21544
lowerneck -18.1566 9.57479 11.4399
upperneck 31.2626 16.6159 -10.3751
head 16.0889 7.72603 -2.79497
rclavicle 1.90833e-014 1.11319e-013
rhumerus -56.0082 -0.924288 -92.606
rradius 28.0189
rwrist 12.1795
rhand 0.63598 -25.3216
rfingers 7.12502
rthumb 26.1994 -53.5334
lclavicle 1.90833e-014 1.11319e-013
lhumerus -9.92844 -36.6234 88.2617
lradius 54.9314
lwrist 3.67472
lhand -15.7872 -29.1436
lfingers 7.12502
lthumb 10.4054 0.578932
rfemur -22.6676 -2.52175 -0.635059
rtibia 18.8832
rfoot -11.256 -6.68632
rtoes 17.1007
lfemur 17.4498 -4.72131 -40.3817
ltibia 6.95078
lfoot -16.9993 -6.17428
ltoes 19.2975
977
root 44.0517 16.631 5.47401 537.017 11.9782 531.894
lowerback 6.89377 -1.59692 -16.619
upperback 3.12303 -2.71508 -2.13154
thorax 0.198801 -1.34156 7.18838
lowerneck -18.4056 9.57822 11.6241
upperneck 31.378 16.5972 -10.4643
head 16.2332 7.71731 -2.85482
rclavicle 1.88845e-015 -8.74653e-015
rhumerus -56.2395 -0.820177 -92.8199
rradius 27.9766
rwrist 12.2694
rhand 0.447425 -25.5015
rfingers 7.12502
rthumb 26.0189 -53.74
lclavicle 1.88845e-015 -8.74653e-015
lhumerus -9.44725 -36.4079 88.199
lradius 55.568
lwrist 3.33722
lhand -15.3651 -29.2908
lfingers 7.12502
lthumb 10.8126 0.410851
rfemur -22.6803 -3.01166 -0.421366
rtibia 16.1955
rfoot -10.9812 -5.41434
rtoes 1.8265
lfemur 17.7848 -4.70788 -39.938
ltibia 7.13565
lfoot -17.1898 -6.91199
ltoes 18.7864
978
root 44.1192 16.5925 5.31226 536.937 11.6118 530.993
lowerback 6.76272 -1.52488 -17.4324
upperback 3.07116 -2.60941 -2.38018
thorax 0.232772 -1.27759 7.35548
lowerneck -18.2488 9.51571 11.3218
upperneck 31.2219 16.4425 -10.1438
head 16.0194 7.66492 -2.71381
rclavicle 3.65764e-014 1.00187e-013
rhumerus -56.5466 -0.877569 -92.9485
rradius 27.9819
rwrist 12.515
rhand 0.374257 -25.8668
rfingers 7.12502
rthumb 25.9488 -54.1156
lclavicle 3.65764e-014 1.00187e-013
lhumerus -8.69161 -36.8959 87.8854
lradius 55.8003
lwrist 3.40341
lhand -15.2846 -29.3551
lfingers 7.12502
lthumb 10.8902 0.342494
rfemur -22.8189 -3.30196 -1.53975
rtibia 13.5897
rfoot -10.7294 -3.9086
rtoes -3.31585
lfemur 18.3642 -5.04824 -41.0044
ltibia 7.25669
lfoot -17.713 -6.74884
ltoes 16.7011
979
root 44.1897 16.5582 5.14592 537.132 11.1651 530.803
lowerback 6.35258 -1.53806 -17.5267
upperback 3.11829 -2.52845 -2.45767
thorax 0.497532 -1.25722 7.30293
lowerneck -18.3397 9.50432 11.5718
upperneck 31.1313 16.3735 -10.3342
head 16.0386 7.6355 -2.84536
rclavicle -3.96575e-014 -2.38542e-014
rhumerus -56.613 -0.915021 -93.0485
rradius 27.947
rwrist 12.4853
rhand 0.524078 -25.9136
rfingers 7.12502
rthumb 26.0923 -54.1413
lclavicle -3.96575e-014 -2.38542e-014
lhumerus -7.97612 -37.7036 87.4287
lradius 56.3553
lwrist 4.46052
lhand -15.9183 -28.4787
lfingers 7.12502
lthumb 10.279 1.25016
rfemur -22.9716 -3.48912 -1.80461
rtibia 11.1281
rfoot -10.7234 -2.27312
rtoes -7.39778
lfemur 18.9275 -5.42397 -41.2102
ltibia 7.24986
lfoot -18.0662 -6.76821
ltoes 15.9012
980
root 44.266 16.5251 4.97653 537.298 10.452 530.283
lowerback 6.11007 -1.61516 -18.1064
upperback 3.05253 -2.59832 -2.53582
thorax 0.615352 -1.29597 7.52718
lowerneck -18.2825 9.53124 11.4907
upperneck 31.0119 16.3656 -10.2093
head 15.9407 7.64031 -2.78315
rclavicle 1.08338e-014 -2.14687e-014
rhumerus -56.7444 -1.0225 -92.9824
rradius 27.8068
rwrist 12.5191
rhand 0.459975 -25.977
rfingers 7.12502
rthumb 26.0309 -54.2137
lclavicle 1.08338e-014 -2.14687e-014
lhumerus -7.49848 -37.6393 87.1637
lradius 56.6285
lwrist 4.0202
lhand -16.1588 -29.5036
lfingers 7.12502
lthumb 10.047 0.236553
rfemur -22.9913 -4.16394 -2.40759
rtibia 9.04358
rfoot -10.8179 -0.35736
rtoes -11.1002
lfemur 19.3194 -5.27667 -41.4677
ltibia 7.52732
lfoot -18.1601 -7.61062
ltoes 16.6138
981
root 44.337 16.4877 4.80617 537.465 9.90894 530.08
lowerback 5.99155 -1.64339 -18.347
upperback 2.94294 -2.63815 -2.51296
thorax 0.588937 -1.31137 7.68159
lowerneck -18.4273 9.40794 11.5043
upperneck 31.1779 16.2511 -10.295
head 16.0499 7.58669 -2.84081
rclavicle 5.33737e-014 8.18993e-014
rhumerus -56.925 -0.919741 -92.9784
rradius 27.7005
rwrist 12.3829
rhand 0.288184 -26.2718
rfingers 7.12502
rthumb 25.8664 -54.5326
lclavicle 5.33737e-014 8.18993e-014
lhumerus -7.29591 -37.531 87.12
lradius 57.0329
lwrist 3.87555
lhand -16.1855 -29.6692
lfingers 7.12502
lthumb 10.0212 0.0722533
rfemur -23.1532 -4.65826 -2.51522
rtibia 7.55658
rfoot -11.1341 1.43022
rtoes -13.1805
lfemur 19.6611 -4.57253 -41.1096
ltibia 7.83278
lfoot -18.3725 -8.23464
ltoes 12.9848
982
root 44.4025 16.4458 4.63433 537.661 9.45194 530.257
lowerback 5.90903 -1.67203 -18.1137
upperback 2.84924 -2.67959 -2.41114
thorax 0.531474 -1.32958 7.66582
lowerneck -18.4423 9.41965 11.5647
upperneck 31.2425 16.3549 -10.4327
head 16.1257 7.62906 -2.88206
rclavicle 2.11706e-014 5.48646e-014
rhumerus -57.0916 -0.448639 -93.2052
rradius 27.6392
rwrist 12.2494
rhand 0.185072 -26.449
rfingers 7.12502
rthumb 25.7676 -54.7242
lclavicle 2.11706e-014 5.48646e-014
lhumerus -7.10539 -37.4669 87.0938
lradius 57.3646
lwrist 3.80608
lhand -16.3814 -29.8982
lfingers 7.12502
lthumb 9.83217 -0.147807
rfemur -23.47 -5.21699 -2.10861
rtibia 6.83756
rfoot -11.3174 3.50515
rtoes -9.67006
lfemur 20.2566 -5.06784 -40.8122
ltibia 7.98943
lfoot -17.958 -9.63829
ltoes 20.1453
983
root 44.4659 16.4011 4.46145 537.819 9.02701 530.337
lowerback 5.83727 -1.71138 -17.9344
upperback 2.7445 -2.73507 -2.3657
thorax 0.461051 -1.35005 7.61898
lowerneck -18.3444 9.44895 11.6874
upperneck 31.2048 16.4322 -10.5496
head 16.1254 7.67258 -2.93576
rclavicle 4.90998e-014 3.57812e-015
rhumerus -57.2622 0.0926767 -93.5595
rradius 27.484
rwrist 12.8334
rhand -0.323996 -26.5373
rfingers 7.12502
rthumb 25.28 -54.8822
lclavicle 4.90998e-014 3.57812e-015
lhumerus -6.9378 -37.3218 87.158
lradius 57.5379
lwrist 3.782
lhand -16.5369 -29.9497
lfingers 7.12502
lthumb 9.6822 -0.192266
rfemur -24.0091 -6.23158 -1.69724
rtibia 6.9873
rfoot -11.309 5.9482
rtoes -4.28412
lfemur 20.6913 -4.9774 -40.5518
ltibia 8.30876
lfoot -18.5136 -9.58979
ltoes 15.4489
984
root 44.5339 16.3594 4.28729 537.892 8.63304 530.203
lowerback 5.75819 -1.68945 -17.9276
upperback 2.66608 -2.69403 -2.44592
thorax 0.404937 -1.31733 7.52637
lowerneck -18.3281 9.40515 11.85
upperneck 31.2312 16.3621 -10.6197
head 16.1503 7.66094 -3.00787
rclavicle 4.57205e-015 -2.66371e-014
rhumerus -57.247 0.0253082 -93.4109
rradius 27.3781
rwrist 12.5928
rhand -0.175447 -26.431
rfingers 7.12502
rthumb 25.4223 -54.7558
lclavicle 4.57205e-015 -2.66371e-014
lhumerus -6.8192 -37.2269 87.2549
lradius 57.6627
lwrist 3.56821
lhand -16.6449 -29.9847
lfingers 7.12502
lthumb 9.57798 -0.222441
rfemur -24.5824 -6.9736 -1.46686
rtibia 7.70629
rfoot -11.093 7.53322
rtoes -3.06536
lfemur 21.1244 -4.97321 -40.6346
ltibia 8.77098
lfoot -19.4213 -8.80137
ltoes 7.24157
985
root 44.6041 16.3178 4.11325 537.818 8.17069 529.823
lowerback 5.78616 -1.63179 -18.2207
upperback 2.64874 -2.61906 -2.56142
thorax 0.365433 -1.2678 7.55988
lowerneck -18.3474 9.36599 12
upperneck 31.2217 16.3136 -10.75
head 16.176 7.64734 -3.09674
rclavicle 2.57923e-014 7.95139e-015
rhumerus -57.1063 -0.0452471 -93.2012
rradius 27.2193
rwrist 12.6532
rhand -0.299965 -26.4393
rfingers 7.12502
rthumb 25.303 -54.781
lclavicle 2.57923e-014 7.95139e-015
lhumerus -6.98084 -37.4664 87.2216
lradius 58.2376
lwrist 3.46559
lhand -16.831 -30.0357
lfingers 7.12502
lthumb 9.39844 -0.26528
rfemur -24.8514 -6.7454 -1.75865
rtibia 8.55072
rfoot -11.3872 7.69016
rtoes -5.52597
lfemur 21.6746 -5.24445 -41.0283
ltibia 9.28169
lfoot -19.4448 -9.12867
ltoes 8.24891
986
root 44.6731 16.2741 3.93806 537.714 7.72391 529.421
lowerback 5.85488 -1.58373 -18.6158
upperback 2.63495 -2.57379 -2.61583
thorax 0.323386 -1.23589 7.71657
lowerneck -18.1102 9.39586 11.6966
upperneck 30.9605 16.355 -10.5677
head 15.9427 7.66377 -2.9686
rclavicle 1.13804e-014 1.74931e-014
rhumerus -56.8911 0.0414111 -92.8574
rradius 27.0753
rwrist 12.746
rhand -0.242376 -26.5032
rfingers 7.12502
rthumb 25.3582 -54.8371
lclavicle 1.13804e-014 1.74931e-014
lhumerus -6.90428 -37.0595 87.4977
lradius 57.9439
lwrist 2.95124
lhand -16.9297 -30.4909
lfingers 7.12502
lthumb 9.30317 -0.716134
rfemur -25.1263 -6.30538 -2.15705
rtibia 9.80179
rfoot -11.6371 7.46832
rtoes -8.03967
lfemur 22.1325 -5.04646 -41.1692
ltibia 9.88841
lfoot -19.4074 -9.71775
ltoes 8.52189
987
root 44.7452 16.2327 3.75913 537.638 7.42456 529.372
lowerback 5.90499 -1.49591 -18.6383
upperback 2.60504 -2.4719 -2.62658
thorax 0.235821 -1.17519 7.71701
lowerneck -18.1726 9.43868 11.9998
upperneck 31.0278 16.4359 -10.7673
head 16.062 7.71211 -3.07867
rclavicle -1.13804e-014 -3.57812e-014
rhumerus -56.6631 0.041107 -92.5154
rradius 26.9209
rwrist 12.7441
rhand -0.133914 -26.4689
rfingers 7.12502
rthumb 25.4621 -54.788
lclavicle -1.13804e-014 -3.57812e-014
lhumerus -7.40152 -36.9274 87.6021
lradius 58.4486
lwrist 2.83864
lhand -17.0424 -30.4073
lfingers 7.12502
lthumb 9.19444 -0.627764
rfemur -25.4363 -5.50347 -2.17936
rtibia 11.3274
rfoot -11.5035 7.27645
rtoes -6.12734
lfemur 22.6626 -4.9048 -40.9367
ltibia 10.4331
lfoot -19.5967 -10.2071
ltoes 7.43228
